<svg id="Logo" xmlns="http://www.w3.org/2000/svg" viewBox="0 0 889.65 959.71"><defs><style>.cls-1{fill:#e8a188;}</style></defs><path class="cls-1" d="M296.94,623.21V566H228.76V478.48H169.38V566H118.79v57.19h50.59v132c0,72,36.84,96.77,127.56,85.78V787.62c-45.08,2.19-68.18,2.74-68.18-32.45v-132Z"/><rect class="cls-1" x="350.82" y="566.02" width="59.38" height="274.93"/><path class="cls-1" d="M830.27,478.48V605.06c-22.54-30.79-54.44-46.19-96.22-46.19-37.94,0-69.84,13.75-96.78,41.79s-40.14,62.13-40.14,102.82c0,40.14,13.2,74.79,40.14,102.83s58.84,41.79,96.78,41.79c41.78,0,73.68-15.4,96.22-46.74V841h59.38V478.48ZM805.53,766.72c-16.5,16.49-37.4,24.74-62.14,24.74s-45.64-8.25-62.13-24.74c-16.5-17.05-24.74-37.94-24.74-63.24s8.24-46.18,24.74-62.68c16.49-17,37.39-25.29,62.13-25.29s45.64,8.25,62.14,25.29q24.74,24.75,24.74,62.68C830.27,728.78,822,749.67,805.53,766.72Z"/><polygon class="cls-1" points="337.08 117.23 260.65 326.17 183.67 117.23 118.79 117.23 226.01 392.15 294.74 392.15 401.96 117.23 337.08 117.23"/><path class="cls-1" d="M498.72,163.42V117.23H439.33V392.16h59.39V253.59c0-28,8.25-48.38,25.29-60.48q25.57-19,59.38-16.5V112.28C542.16,112.28,513.56,129.33,498.72,163.42Z"/><rect class="cls-1" x="627.38" y="117.23" width="59.38" height="274.93"/><rect class="cls-1" x="350.82" y="448.79" width="59.38" height="59.38"/><rect class="cls-1" x="483.87" y="448.79" width="59.38" height="59.38"/><path class="cls-1" d="M483.87,854.68a91.42,91.42,0,0,1-1.7,18.63c-3.35,16-18.08,27-34.41,27H410.37v59.39H458c11.71,0,23.46-1.8,34.26-6.33q51.07-21.42,51-98.71V566H483.87Z"/><path class="cls-1" d="M760.44,117.23V403.15a90.57,90.57,0,0,1-1.71,18.62c-3.35,16-18.08,27-34.4,27h-97v59.38H734.54c11.71,0,23.46-1.8,34.25-6.32q51.09-21.42,51-98.71V117.23Z"/><rect class="cls-1" x="627.38" width="59.38" height="59.38"/><rect class="cls-1" x="760.43" width="59.38" height="59.38"/><polygon class="cls-1" points="59.38 900.33 350.82 900.33 350.82 959.71 0 959.71 0 0.01 567.97 0.01 567.97 59.4 59.38 59.4 59.38 900.33"/></svg>
